<?xml version="1.0" encoding="UTF-8" standalone="no"?>
<svg
   id="icon"
   width="150"
   height="150"
   viewBox="0 0 150 150"
   version="1.1"
   xmlns="http://www.w3.org/2000/svg"
   xmlns:svg="http://www.w3.org/2000/svg"
   xmlns:rdf="http://www.w3.org/1999/02/22-rdf-syntax-ns#"
   xmlns:cc="http://creativecommons.org/ns#"
   xmlns:dc="http://purl.org/dc/elements/1.1/">
  <defs
     id="defs1">
    <linearGradient
       id="swatch4">
      <stop
         style="stop-color:#ffffff;stop-opacity:1;"
         offset="0"
         id="stop4" />
    </linearGradient>
    <style
       id="style1">.cls-1{fill:none;}</style>
  </defs>
  <title
     id="title1">user--data</title>
  <rect
     x="131.25"
     y="37.5"
     width="9.375"
     height="37.5"
     id="rect1"
     style="fill:#007d79;fill-opacity:1;stroke:none;stroke-width:1;stroke-dasharray:none" />
  <rect
     x="107.8125"
     y="23.4375"
     width="9.375"
     height="51.5625"
     id="rect2"
     style="fill:#007d79;fill-opacity:1;stroke:none;stroke-width:1;stroke-dasharray:none" />
  <rect
     x="84.375"
     y="46.875"
     width="9.375"
     height="28.125"
     id="rect3"
     style="fill:#007d79;fill-opacity:1;stroke:none;stroke-width:1;stroke-dasharray:none" />
  <path
     d="M 75,140.625 H 65.625 V 112.5 A 14.077969,14.077969 0 0 0 51.5625,98.4375 h -18.75 A 14.077969,14.077969 0 0 0 18.75,112.5 v 28.125 H 9.375 V 112.5 A 23.465156,23.465156 0 0 1 32.8125,89.0625 h 18.75 A 23.465156,23.465156 0 0 1 75,112.5 Z"
     id="path3"
     style="fill:#007d79;fill-opacity:1;stroke:none;stroke-width:1;stroke-dasharray:none" />
  <path
     d="M 42.1875,42.1875 A 14.0625,14.0625 0 1 1 28.125,56.25 14.0625,14.0625 0 0 1 42.1875,42.1875 m 0,-9.375 A 23.4375,23.4375 0 1 0 65.625,56.25 23.4375,23.4375 0 0 0 42.1875,32.8125 Z"
     id="path4"
     style="fill:#007d79;fill-opacity:1;stroke:none;stroke-width:1;stroke-dasharray:none" />
  <rect
     id="_Transparent_Rectangle_"
     data-name="&lt;Transparent Rectangle&gt;"
     class="cls-1"
     width="150"
     height="150"
     x="0"
     y="0"
     style="stroke-width:4.6875" />
  <metadata
     id="metadata8">
    <rdf:RDF>
      <cc:Work
         rdf:about="">
        <dc:title>user--data</dc:title>
      </cc:Work>
    </rdf:RDF>
  </metadata>
</svg>
